<svg xmlns="http://www.w3.org/2000/svg" width="60.278" height="58.772" viewBox="0 0 60.278 58.772"><defs><style>.a{fill:#fff;}</style></defs><path class="a" d="M20.162,55.323c0,.243-.28.438-.632.438-.4.036-.681-.158-.681-.438,0-.243.28-.438.632-.438C19.846,54.849,20.162,55.044,20.162,55.323Zm-3.78-.547c-.085.243.158.523.523.6a.57.57,0,0,0,.753-.243c.073-.243-.158-.523-.523-.632a.624.624,0,0,0-.753.28Zm5.372-.207c-.352.085-.6.316-.559.6.036.243.352.4.717.316s.6-.316.559-.559S22.106,54.534,21.754,54.57ZM29.75,8C12.894,8,0,20.8,0,37.653a30.469,30.469,0,0,0,20.6,29.07c1.556.28,2.1-.681,2.1-1.471,0-.753-.036-4.91-.036-7.462,0,0-8.507,1.823-10.294-3.622,0,0-1.385-3.536-3.379-4.448,0,0-2.783-1.908.194-1.872a6.415,6.415,0,0,1,4.691,3.135c2.661,4.691,7.122,3.342,8.859,2.54a6.755,6.755,0,0,1,1.944-4.1C17.889,48.676,11.035,47.691,11.035,36A9.21,9.21,0,0,1,13.9,28.842a11.482,11.482,0,0,1,.316-8.252c2.54-.79,8.386,3.281,8.386,3.281a28.71,28.71,0,0,1,15.264,0s5.846-4.083,8.386-3.281a11.477,11.477,0,0,1,.316,8.252c1.944,2.151,3.135,3.828,3.135,7.158,0,11.728-7.158,12.663-13.952,13.429,1.118.96,2.066,2.783,2.066,5.639,0,4.1-.036,9.163-.036,10.16,0,.79.559,1.75,2.1,1.47,12.153-4.035,20.393-15.568,20.393-29.045C60.278,20.8,46.606,8,29.75,8ZM11.813,49.915c-.158.122-.122.4.085.632.194.194.474.28.632.122.158-.122.122-.4-.085-.632C12.25,49.842,11.971,49.757,11.813,49.915ZM10.5,48.931c-.085.158.036.352.28.474a.362.362,0,0,0,.523-.085c.085-.158-.036-.352-.28-.474C10.78,48.773,10.585,48.809,10.5,48.931Zm3.938,4.326c-.194.158-.122.523.158.753.28.28.632.316.79.122.158-.158.085-.523-.158-.753C14.96,53.1,14.6,53.063,14.438,53.257Zm-1.385-1.786c-.194.122-.194.438,0,.717s.523.4.681.28a.554.554,0,0,0,0-.753c-.17-.28-.486-.4-.681-.243Z" transform="translate(0 -8)"/></svg>