<svg xmlns="http://www.w3.org/2000/svg" width="54.475" height="54.463" viewBox="0 0 54.475 54.463"><defs><style>.a{fill:#fff;}</style></defs><path class="a" d="M27.169,45.093A13.964,13.964,0,1,0,41.132,59.057,13.942,13.942,0,0,0,27.169,45.093Zm0,23.042a9.078,9.078,0,1,1,9.078-9.078,9.095,9.095,0,0,1-9.078,9.078ZM44.961,44.522A3.257,3.257,0,1,1,41.7,41.265,3.249,3.249,0,0,1,44.961,44.522Zm9.248,3.306c-.207-4.363-1.2-8.228-4.4-11.412s-7.049-4.181-11.412-4.4c-4.5-.255-17.974-.255-22.471,0-4.351.207-8.215,1.2-11.412,4.387S.335,43.452.116,47.815c-.255,4.5-.255,17.974,0,22.471.207,4.363,1.2,8.228,4.4,11.412s7.049,4.181,11.412,4.4c4.5.255,17.974.255,22.471,0,4.363-.207,8.228-1.2,11.412-4.4s4.181-7.049,4.4-11.412c.255-4.5.255-17.962,0-22.459ZM48.4,75.111a9.191,9.191,0,0,1-5.177,5.177c-3.585,1.422-12.092,1.094-16.054,1.094s-12.481.316-16.054-1.094a9.191,9.191,0,0,1-5.177-5.177C4.516,71.526,4.844,63.018,4.844,59.057S4.528,46.576,5.938,43a9.191,9.191,0,0,1,5.177-5.177C14.7,36.4,23.207,36.732,27.169,36.732s12.481-.316,16.054,1.094A9.191,9.191,0,0,1,48.4,43c1.422,3.585,1.094,12.092,1.094,16.054S49.822,71.538,48.4,75.111Z" transform="translate(0.075 -31.825)"/></svg>