<svg xmlns="http://www.w3.org/2000/svg" width="54.445" height="54.445" viewBox="0 0 54.445 54.445"><defs><style>.a{fill:#fff;}</style></defs><path class="a" d="M50.556,32H3.877A3.906,3.906,0,0,0,0,35.925V82.52a3.906,3.906,0,0,0,3.877,3.925H50.556a3.916,3.916,0,0,0,3.889-3.925V35.925A3.916,3.916,0,0,0,50.556,32Zm-34.1,46.667H8.386V52.684h8.082V78.667ZM12.42,49.136A4.679,4.679,0,1,1,17.1,44.457,4.681,4.681,0,0,1,12.42,49.136ZM46.7,78.667h-8.07V66.028c0-3.014-.061-6.891-4.193-6.891-4.2,0-4.849,3.281-4.849,6.672V78.667h-8.07V52.684h7.741v3.549h.109a8.5,8.5,0,0,1,7.644-4.193c8.167,0,9.686,5.384,9.686,12.384Z" transform="translate(0 -32)"/></svg>