<svg xmlns="http://www.w3.org/2000/svg" width="62.223" height="50.536" viewBox="0 0 62.223 50.536"><defs><style>.a{fill:#fff;}</style></defs><path class="a" d="M55.827,60.677c.04.553.04,1.106.04,1.658,0,16.859-12.831,36.283-36.283,36.283A36.037,36.037,0,0,1,0,92.894a26.381,26.381,0,0,0,3.08.158A25.54,25.54,0,0,0,18.912,87.6,12.775,12.775,0,0,1,6.988,78.759a16.082,16.082,0,0,0,2.408.2,13.488,13.488,0,0,0,3.356-.434A12.754,12.754,0,0,1,2.527,66.007v-.158a12.843,12.843,0,0,0,5.764,1.619A12.772,12.772,0,0,1,4.343,50.411,36.249,36.249,0,0,0,30.637,63.756a14.4,14.4,0,0,1-.316-2.922,12.765,12.765,0,0,1,22.07-8.725,25.107,25.107,0,0,0,8.094-3.08,12.718,12.718,0,0,1-5.606,7.028,25.565,25.565,0,0,0,7.344-1.974,27.413,27.413,0,0,1-6.4,6.593Z" transform="translate(0 -48.082)"/></svg>